<svg xmlns="http://www.w3.org/2000/svg" xmlns:xlink="http://www.w3.org/1999/xlink" id="Layer_1" x="0" y="0" baseProfile="basic" version="1.1" viewBox="0 0 145.48 145.48" xml:space="preserve"><style type="text/css">.st0{fill:#2c3869}.st1{fill:#fff}.st2{fill:#1c1c1c}.st3{fill:#545454}.st4{fill:#fff;stroke:#fff;stroke-width:8;stroke-miterlimit:10}</style><circle cx="72.74" cy="72.74" r="72.74" class="st0"/><g><path d="M46.24,29.06c5.4-5.4,13.71-8.11,24.91-8.11c11.97,0,21.05,3.1,27.23,9.27c3.85,3.86,6.33,8.2,7.44,13.04 c0.71,3.11-1.68,6.08-4.88,6.08h-3.32c-2.35,0-4.36-1.65-4.87-3.94c-0.65-2.93-2.06-5.47-4.22-7.65 c-3.48-3.48-8.89-5.21-16.22-5.21c-8.11,0-13.71,1.55-16.8,4.63c-2.71,2.71-4.06,5.79-4.06,9.27c0,3.48,0.77,5.99,2.32,7.53 c1.93,1.94,5.4,3.87,10.43,5.79c8.88,3.87,18.92,8.31,30.13,13.33c3.09,1.16,5.98,3.1,8.69,5.79c4.25,4.25,6.37,9.27,6.37,15.06 c0,7.73-2.71,14.29-8.11,19.7c-5.79,5.79-15.26,8.69-28.39,8.69c-12.75,0-22.6-3.48-29.55-10.43c-4.01-4.01-6.42-9.5-7.23-16.47 c-0.34-2.95,1.99-5.55,4.96-5.55h3.34c2.51,0,4.66,1.86,4.95,4.35c0.53,4.74,2,8.31,4.41,10.71c4.25,4.25,10.81,6.37,19.7,6.37 c8.11,0,14.09-1.93,17.96-5.79c3.09-3.09,4.63-6.17,4.63-9.27c0-3.48-1.16-6.37-3.48-8.69c-1.94-1.93-5.02-3.86-9.27-5.79 c-3.87-1.93-8.89-4.25-15.06-6.95c-6.95-3.09-12.56-5.59-16.8-7.53c-3.1-1.16-5.79-2.9-8.11-5.21c-3.48-3.48-5.21-8.11-5.21-13.9 C38.13,40.85,40.83,34.48,46.24,29.06z" class="st1"/></g><circle cx="69.37" cy="69.53" r="24.84" class="st2"/><path d="M63.96,59.43c-5.07-1.93-8.57-3.86-10.51-5.79c-0.53-0.52-0.96-1.17-1.31-1.92c-3.34,3.22-5.78,7.36-6.9,12	c1.78,1.35,3.72,2.44,5.88,3.24c4.28,1.94,9.93,4.44,16.94,7.53c6.23,2.71,11.29,5.02,15.19,6.95c2.42,1.1,4.46,2.19,6.14,3.28	c2.65-3.39,4.44-7.48,5.03-11.95c-0.02-0.01-0.04-0.02-0.06-0.03C83.03,67.74,72.91,63.29,63.96,59.43z" class="st3"/><path d="M69.95,85.9c-1.09,0-1.99-0.88-2-1.98l-0.34-30.47c-0.01-1.1,0.87-2.01,1.98-2.02c0.01,0,0.02,0,0.02,0	c1.09,0,1.99,0.88,2,1.98l0.34,30.47c0.01,1.1-0.87,2.01-1.98,2.02C69.97,85.9,69.96,85.9,69.95,85.9z" class="st4"/><path d="M52.3,68.83c0-1.09,0.88-1.99,1.98-2l30.47-0.34c1.1-0.01,2.01,0.87,2.02,1.98c0,0.01,0,0.02,0,0.02	c0,1.09-0.88,1.99-1.98,2l-30.47,0.34c-1.1,0.01-2.01-0.87-2.02-1.98C52.3,68.85,52.3,68.84,52.3,68.83z" class="st4"/></svg>